<?xml version="1.0" standalone="no"?>
<!DOCTYPE svg PUBLIC "-//W3C//DTD SVG 20010904//EN"
 "http://www.w3.org/TR/2001/REC-SVG-20010904/DTD/svg10.dtd">
<svg version="1.0" xmlns="http://www.w3.org/2000/svg"
 width="700.000000pt" height="700.000000pt" viewBox="0 0 700.000000 700.000000"
 preserveAspectRatio="xMidYMid meet">
<metadata>
Created by potrace 1.14, written by Peter Selinger 2001-2017
</metadata>
<g transform="translate(0.000000,700.000000) scale(0.100000,-0.100000)"
fill="#000000" stroke="none">
<path d="M963 6669 c-110 -22 -171 -149 -118 -248 11 -22 144 -184 335 -411
21 -25 145 -173 275 -330 130 -157 246 -296 258 -310 73 -82 658 -790 659
-797 1 -8 -131 -92 -997 -632 -258 -161 -481 -303 -494 -315 -60 -53 -56 54
-56 -1632 1 -1394 2 -1542 17 -1569 48 -89 153 -124 240 -79 23 12 55 46 172
184 11 14 77 93 145 175 69 83 127 152 130 155 4 3 18 21 33 42 15 20 34 42
41 50 7 7 114 135 237 283 124 149 227 272 230 275 3 3 93 111 200 240 107
129 197 237 200 240 3 3 71 84 150 180 80 96 149 180 155 186 13 15 44 52 262
314 98 118 188 226 200 240 12 14 74 88 138 165 63 77 120 140 125 140 8 0 56
-53 123 -136 15 -19 530 -637 1145 -1374 676 -811 1130 -1347 1150 -1358 40
-23 117 -25 158 -4 40 21 74 59 87 99 9 26 12 422 12 1569 -1 1678 3 1561 -57
1616 -12 11 -133 90 -268 173 -135 84 -267 167 -295 185 -42 27 -538 337 -660
412 -22 14 -81 52 -132 84 -51 32 -96 59 -101 59 -5 0 -16 8 -25 18 -14 16
-13 20 16 53 18 20 48 55 67 79 19 24 40 48 45 54 6 6 30 36 55 66 25 30 47
57 50 60 3 3 48 57 100 120 52 63 97 117 100 120 3 3 37 43 75 90 38 47 79 96
92 110 20 23 268 321 303 364 18 23 85 102 114 136 11 14 109 131 216 260 107
129 206 248 220 263 67 76 84 114 82 177 -3 63 -38 117 -96 147 -29 16 -226
17 -2558 17 -1390 1 -2540 -2 -2555 -5z m4657 -347 c0 -4 -279 -342 -290 -352
-3 -3 -35 -41 -70 -85 -36 -44 -68 -82 -71 -85 -3 -3 -65 -77 -138 -165 -73
-88 -140 -169 -149 -180 -10 -11 -37 -45 -62 -75 -25 -30 -48 -57 -51 -60 -3
-3 -88 -104 -188 -225 -100 -121 -201 -242 -224 -269 -23 -27 -45 -53 -48 -59
-7 -10 -29 2 -304 173 -101 63 -185 118 -185 121 0 7 47 38 395 254 149 92
286 178 305 190 19 13 152 96 295 185 143 89 271 172 283 184 54 48 71 140 39
203 -21 39 -71 81 -105 89 -15 3 -32 7 -38 9 -17 5 -97 -16 -114 -30 -8 -6
-112 -72 -230 -145 -118 -73 -237 -148 -265 -165 -27 -18 -242 -152 -477 -299
l-428 -267 -227 142 c-126 78 -250 156 -278 174 -100 65 -881 550 -910 566
-118 64 -257 -18 -257 -151 0 -56 21 -101 65 -135 17 -14 309 -198 647 -409
338 -211 615 -387 617 -392 3 -11 -474 -311 -481 -302 -2 1 -162 194 -356 428
-195 234 -431 517 -524 630 -94 113 -173 207 -176 210 -3 3 -37 43 -75 90 -38
47 -72 87 -75 90 -11 11 -90 108 -90 111 0 2 954 4 2120 4 1166 0 2120 -2
2120 -3z m-2007 -1535 c53 -34 183 -115 287 -180 123 -77 188 -123 183 -130
-8 -13 -546 -662 -569 -687 -16 -17 17 -54 -343 379 l-262 314 23 16 c81 57
556 350 568 350 8 0 59 -28 113 -62z m1170 -733 c158 -98 298 -186 312 -194
14 -8 76 -47 137 -86 62 -39 217 -135 343 -214 127 -79 234 -147 240 -152 6
-6 10 -426 10 -1213 l0 -1205 -26 28 c-24 24 -207 244 -1328 1592 -163 195
-298 357 -301 360 -3 3 -24 28 -45 55 -22 28 -43 52 -46 55 -5 5 -95 112 -282
338 l-69 82 69 82 c37 46 78 94 89 108 39 45 455 544 481 577 l26 32 51 -33
c28 -17 180 -113 339 -212z m-2074 121 c117 -140 113 -135 196 -235 38 -47 72
-87 75 -90 21 -20 285 -343 285 -350 0 -6 -419 -518 -470 -574 -6 -6 -93 -110
-194 -231 -100 -121 -190 -229 -200 -240 -9 -11 -163 -195 -341 -410 -179
-214 -333 -399 -342 -410 -9 -11 -125 -150 -258 -310 -133 -159 -251 -300
-263 -312 l-22 -23 0 1206 0 1206 710 444 c391 244 715 443 721 442 6 -2 53
-52 103 -113z"/>
</g>
</svg>
